<svg width="220" height="60" viewBox="0 0 220 60" fill="none" xmlns="http://www.w3.org/2000/svg">
<path d="M30 5.00002C26.7484 4.88195 23.5066 5.42284 20.4695 6.59013C17.4324 7.75742 14.6628 9.527 12.3274 11.7924C9.99189 14.0578 8.1388 16.7722 6.87957 19.7724C5.62034 22.7725 4.981 25.9964 5 29.25C4.9581 32.628 5.63655 35.976 6.99014 39.0712C8.34373 42.1663 10.3414 44.9375 12.85 47.2C13.0492 47.3774 13.2113 47.5924 13.3272 47.8327C13.443 48.0729 13.5102 48.3337 13.525 48.6V53.05C13.5387 53.3781 13.632 53.6979 13.7967 53.9818C13.9615 54.2658 14.1929 54.5055 14.4709 54.6801C14.7489 54.8548 15.0652 54.9593 15.3926 54.9845C15.7199 55.0098 16.0485 54.955 16.35 54.825L21.35 52.65C21.7769 52.4888 22.248 52.4888 22.675 52.65C25.0386 53.288 27.4768 53.6075 29.925 53.6C36.3698 53.61 42.5545 51.0593 47.1187 46.5092C51.6828 41.9591 54.2526 35.7823 54.2625 29.3375C54.2724 22.8928 51.7218 16.708 47.1717 12.1438C42.6216 7.57967 36.4448 5.00997 30 5.00002ZM45 23.65L37.675 35.3C37.3987 35.7386 37.0345 36.1152 36.6054 36.406C36.1763 36.6967 35.6915 36.8954 35.1817 36.9893C34.6719 37.0833 34.1482 37.0706 33.6436 36.9519C33.139 36.8333 32.6645 36.6113 32.25 36.3L26.4 31.925C26.1404 31.7303 25.8246 31.625 25.5 31.625C25.1754 31.625 24.8596 31.7303 24.6 31.925L16.7 37.925C16.48 38.0947 16.207 38.1809 15.9294 38.1684C15.6518 38.1558 15.3877 38.0453 15.1839 37.8565C14.9801 37.6677 14.8497 37.4127 14.8161 37.1369C14.7824 36.8611 14.8476 36.5823 15 36.35L22.325 24.7C22.6013 24.2614 22.9655 23.8848 23.3946 23.5941C23.8237 23.3033 24.3085 23.1047 24.8183 23.0107C25.328 22.9167 25.8518 22.9295 26.3564 23.0481C26.861 23.1668 27.3355 23.3887 27.75 23.7L33.6 28.075C33.8596 28.2698 34.1754 28.375 34.5 28.375C34.8246 28.375 35.1404 28.2698 35.4 28.075L43.3 22.075C43.52 21.9053 43.793 21.8191 44.0706 21.8317C44.3482 21.8442 44.6123 21.9547 44.8161 22.1435C45.0199 22.3324 45.1503 22.5873 45.1839 22.8631C45.2176 23.1389 45.1524 23.4177 45 23.65Z" fill="white"/>
<path d="M110 21.875C107.845 21.875 105.778 22.731 104.255 24.2548C102.731 25.7785 101.875 27.8451 101.875 30C101.875 32.1549 102.731 34.2215 104.255 35.7452C105.778 37.269 107.845 38.125 110 38.125C112.155 38.125 114.222 37.269 115.745 35.7452C117.269 34.2215 118.125 32.1549 118.125 30C118.125 27.8451 117.269 25.7785 115.745 24.2548C114.222 22.731 112.155 21.875 110 21.875Z" fill="white"/>
<path fill-rule="evenodd" clip-rule="evenodd" d="M96.925 7.70498C105.615 6.74173 114.385 6.74173 123.075 7.70498C127.823 8.23498 131.65 11.9725 132.208 16.7375C133.238 25.5491 133.238 34.4508 132.208 43.2625C131.65 48.0275 127.823 51.765 123.078 52.2975C114.387 53.261 105.616 53.261 96.925 52.2975C92.1775 51.765 88.35 48.0275 87.7925 43.265C86.7618 34.4525 86.7618 25.5499 87.7925 16.7375C88.35 11.9725 92.1775 8.23498 96.925 7.70498ZM122.5 15C121.837 15 121.201 15.2634 120.732 15.7322C120.263 16.2011 120 16.8369 120 17.5C120 18.163 120.263 18.7989 120.732 19.2677C121.201 19.7366 121.837 20 122.5 20C123.163 20 123.799 19.7366 124.268 19.2677C124.737 18.7989 125 18.163 125 17.5C125 16.8369 124.737 16.2011 124.268 15.7322C123.799 15.2634 123.163 15 122.5 15ZM98.125 30C98.125 26.8505 99.3761 23.8301 101.603 21.6031C103.83 19.3761 106.851 18.125 110 18.125C113.149 18.125 116.17 19.3761 118.397 21.6031C120.624 23.8301 121.875 26.8505 121.875 30C121.875 33.1494 120.624 36.1699 118.397 38.3969C116.17 40.6239 113.149 41.875 110 41.875C106.851 41.875 103.83 40.6239 101.603 38.3969C99.3761 36.1699 98.125 33.1494 98.125 30Z" fill="white"/>
<path d="M181.2 32.85H183.025V41.875H184.775V32.85H186.6V31.325H181.2V32.85ZM190.425 40C190.125 40.35 189.1 41.05 189.1 40.05V34.075H187.55V40.6C187.55 42.575 189.525 42.05 190.45 41.025V41.875H192V34.075H190.45V40H190.425ZM196.2 34.025C195.3 34.025 194.725 34.7 194.725 34.7V31.3H193.15V41.875H194.725V41.275C194.725 41.275 195.25 41.975 196.2 41.975C197.025 41.975 197.65 41.25 197.65 40.25V35.925C197.65 34.75 197.1 34.025 196.2 34.025ZM196.025 40.05C196.025 40.625 195.625 40.9 195.1 40.675C194.958 40.6087 194.831 40.5153 194.725 40.4V35.55C194.825 35.45 194.95 35.375 195.05 35.3C195.6 35.025 196.025 35.45 196.025 36.025V40.05ZM201.8 39.65C201.8 40.25 201.475 40.65 201.1 40.675C200.7 40.7 200.3 40.375 200.3 39.65V38.175H203.275V36.175C203.283 35.8704 203.229 35.5675 203.117 35.284C203.006 35.0006 202.838 34.7425 202.625 34.525C202.195 34.1327 201.632 33.9182 201.05 33.925C200.5 33.925 199.925 34.1 199.475 34.45C199 34.825 198.7 35.4 198.7 36.175V39.675C198.7 40.375 198.925 40.925 199.275 41.325C199.7 41.775 200.275 42.025 200.875 42.05C201.6 42.075 202.375 41.775 202.825 41.15C203.1 40.775 203.275 40.275 203.275 39.675V39.275H201.8V39.65ZM200.3 36.175C200.3 35.75 200.55 35.25 201.025 35.25C201.5 35.25 201.8 35.7 201.8 36.175V36.975H200.3V36.175Z" fill="white"/>
<path d="M192.425 7.5C189.47 7.50016 186.544 8.08234 183.814 9.21328C181.084 10.3442 178.604 12.0018 176.515 14.0913C174.425 16.1809 172.768 18.6615 171.637 21.3915C170.507 24.1216 169.925 27.0476 169.925 30.0025C169.925 32.9574 170.507 35.8833 171.638 38.6133C172.769 41.3432 174.427 43.8236 176.516 45.9129C178.606 48.0022 181.086 49.6595 183.817 50.7902C186.547 51.9208 189.473 52.5027 192.427 52.5025C198.395 52.5022 204.118 50.1312 208.338 45.9112C212.557 41.6911 214.928 35.9677 214.927 30C214.927 24.0323 212.556 18.3091 208.336 14.0896C204.116 9.87001 198.393 7.49967 192.425 7.5ZM196.375 15.925H198.375V22.625C198.375 23.05 198.575 23.05 198.65 23.05C198.95 23.05 199.4 22.725 199.625 22.5V15.9H201.625V24.75H199.625V23.975C199.35 24.225 199.075 24.425 198.8 24.575C198.425 24.775 198.075 24.85 197.725 24.85C197.533 24.8592 197.342 24.8258 197.165 24.7524C196.988 24.6789 196.829 24.5671 196.7 24.425C196.475 24.15 196.375 23.725 196.375 23.2V15.925ZM190 18.25C190 16.875 191.125 15.75 192.5 15.75C193.875 15.75 195 16.875 195 18.25V22.5C195 23.875 193.875 25 192.5 25C191.125 25 190 23.875 190 22.5V18.25ZM184.8 12.875L186 17.275L187.225 12.875H189.5L187.15 19.825V24.75H184.925V19.825L182.525 12.875H184.8ZM204.55 44.225C203.275 45.475 192.475 45.5 192.475 45.5C192.475 45.5 181.7 45.475 180.4 44.225C179.125 42.975 179.125 36.75 179.125 36.7C179.125 36.675 179.125 30.45 180.4 29.175C181.675 27.925 192.475 27.9 192.475 27.9C192.475 27.9 203.25 27.925 204.55 29.175C205.825 30.425 205.85 36.65 205.85 36.7C205.85 36.7 205.85 42.95 204.55 44.225Z" fill="white"/>
<path d="M192.45 23.375C192.875 23.375 193.075 23.125 193.1 22.725V17.975C193.1 17.65 192.775 17.375 192.475 17.375C192.175 17.375 191.85 17.625 191.85 17.975V22.725C191.85 23.1 192.025 23.35 192.45 23.375Z" fill="white"/>
</svg>
